<svg
    width="117"
    height="36"
    viewBox="0 0 117 36"
    fill="none"
    xmlns="http://www.w3.org/2000/svg"
    >
    <g clip-path="url(#clip0_193_492)">
        <g clip-path="url(#clip1_193_492)">
        <g clip-path="url(#clip2_193_492)">
            <mask
            id="mask0_193_492"
            maskUnits="userSpaceOnUse"
            x="0"
            y="0"
            width="117"
            height="35"
            >
            <path
                d="M116.322 0H0.00854492V34.961H116.322V0Z"
                fill="white"
            />
            </mask>
            <g mask="url(#mask0_193_492)">
            <mask
                id="mask1_193_492"
                maskUnits="userSpaceOnUse"
                x="0"
                y="0"
                width="35"
                height="35"
            >
                <path
                d="M17.4935 2.06192e-05C14.0375 0.00532039 10.6606 1.03522 7.78984 2.95952C4.91907 4.88382 2.68331 7.61611 1.36522 10.8109C0.0471355 14.0057 -0.294083 17.5197 0.384704 20.9084C1.06349 24.2971 2.73181 27.4085 5.17871 29.8492C7.62563 32.2898 10.7413 33.9502 14.1317 34.6204C17.5222 35.2905 21.0353 34.9403 24.2267 33.6141C27.4181 32.2878 30.1447 30.0451 32.0617 27.1694C33.9786 24.2937 34.9999 20.9143 34.9963 17.4582C34.9845 12.8192 33.1316 8.37473 29.8446 5.1012C26.5577 1.82768 22.1057 -0.0070949 17.4667 2.06192e-05"
                fill="white"
                />
            </mask>
            <g mask="url(#mask1_193_492)">
                <path
                d="M33.8459 1.08691L1.08179 1.13266L1.12753 33.8878L33.8916 33.8421L33.8459 1.08691Z"
                fill="url(#paint0_linear_193_492)"
                />
            </g>
            <path
                d="M4.38428 7.68862H30.5492C29.0251 5.65884 27.0496 4.01154 24.7791 2.87701C22.5084 1.74249 20.005 1.15186 17.4667 1.15186C14.9285 1.15186 12.425 1.74249 10.1544 2.87701C7.88381 4.01154 5.90835 5.65884 4.38428 7.68862Z"
                fill="black"
            />
            <path
                d="M33.8354 17.4583C33.8355 16.3606 33.7248 15.2656 33.505 14.1899L1.44634 14.2346C1.01024 16.3917 1.01024 18.6142 1.44634 20.7714L33.505 20.7267C33.7212 19.6507 33.8289 18.5558 33.8265 17.4583"
                fill="black"
            />
            <path
                d="M17.5024 33.8271C20.041 33.8257 22.5444 33.2326 24.8137 32.0948C27.0831 30.957 29.0561 29.3058 30.5759 27.2725H4.4021C5.92841 29.3029 7.90725 30.9494 10.1814 32.081C12.4555 33.2127 14.9623 33.7983 17.5024 33.7914"
                fill="black"
            />
            <path
                d="M95.1041 14.6808L95.0148 14.7344L94.8273 14.1897C94.7951 14.1017 94.7362 14.0256 94.6603 13.9714C94.5835 13.9172 94.4924 13.8875 94.3986 13.8861H93.4253C93.3038 13.8884 93.1877 13.9384 93.1029 14.0252C93.0172 14.112 92.9698 14.2288 92.9698 14.3504V26.781C92.9725 26.9002 93.0216 27.0138 93.1065 27.0973C93.1913 27.1808 93.3056 27.2275 93.4253 27.2275H95.1577C95.2175 27.2286 95.2774 27.218 95.3327 27.1962C95.3881 27.1744 95.439 27.1419 95.4828 27.1004C95.5256 27.059 95.5604 27.0094 95.5837 26.9546C95.6078 26.8997 95.6212 26.8408 95.6221 26.781V16.7169H95.6667C96.5436 16.2592 97.5286 16.0493 98.5154 16.1096C100.203 16.1096 100.542 16.7437 100.542 17.7706V26.7899C100.545 26.9091 100.594 27.0227 100.679 27.1062C100.764 27.1897 100.878 27.2364 100.998 27.2364H102.784C102.904 27.2364 103.018 27.1897 103.103 27.1062C103.188 27.0227 103.237 26.9091 103.239 26.7899V17.8599C103.239 15.1184 101.614 13.6807 98.56 13.6807C97.3482 13.7054 96.1668 14.0672 95.1488 14.7255"
                fill="white"
            />
            <path
                d="M90.023 14.3505C90.0239 14.2904 90.0132 14.2306 89.9908 14.1748C89.9685 14.119 89.9346 14.0684 89.8926 14.0258C89.8497 13.9833 89.7988 13.9498 89.7435 13.9273C89.6872 13.9048 89.6274 13.8939 89.5676 13.8951H87.8976C87.8371 13.8951 87.7771 13.9072 87.7213 13.9307C87.6655 13.9541 87.6148 13.9884 87.5724 14.0317C87.53 14.0749 87.4967 14.1261 87.4743 14.1825C87.452 14.2387 87.4411 14.2989 87.4422 14.3595V26.7722C87.4411 26.8327 87.452 26.8929 87.4743 26.9492C87.4967 27.0055 87.53 27.0568 87.5724 27.1C87.6148 27.1432 87.6655 27.1776 87.7213 27.201C87.7771 27.2245 87.8371 27.2365 87.8976 27.2365H89.5765C89.6363 27.2366 89.6962 27.2245 89.7515 27.2009C89.8069 27.1774 89.8569 27.1429 89.8989 27.0995C89.9408 27.0561 89.973 27.0048 89.9944 26.9485C90.0158 26.8923 90.0257 26.8323 90.023 26.7722V14.3505Z"
                fill="white"
            />
            <path
                d="M84.2542 8.12633C84.2542 8.00554 84.2062 7.88969 84.1208 7.80429C84.0354 7.71888 83.9196 7.6709 83.7987 7.6709H82.111C81.9893 7.67087 81.8725 7.71857 81.7857 7.80373C81.6989 7.8889 81.6489 8.00472 81.6466 8.12633V26.7632C81.6466 26.8864 81.6955 27.0045 81.7826 27.0916C81.8697 27.1787 81.9878 27.2276 82.111 27.2276H83.7898C83.8504 27.2276 83.9104 27.2155 83.9662 27.1921C84.0221 27.1687 84.0726 27.1343 84.115 27.0911C84.1575 27.0478 84.1909 26.9966 84.2132 26.9402C84.2355 26.884 84.2464 26.8238 84.2452 26.7632L84.2542 8.12633Z"
                fill="white"
            />
            <path
                d="M58.25 19.4406C58.3751 17.7172 58.8394 16.1365 61.2237 16.1365C63.2955 16.1365 63.6973 17.2439 63.742 19.4406V19.5299H58.2411L58.25 19.4406ZM55.571 20.6105C55.571 22.3161 55.571 27.5312 61.2327 27.5223C62.6843 27.5794 64.1348 27.3829 65.5191 26.9418C65.6011 26.9101 65.6711 26.8533 65.7193 26.7797C65.7673 26.7059 65.791 26.6189 65.787 26.5311V25.1201C65.7886 25.0451 65.7704 24.971 65.7344 24.9052C65.6984 24.8394 65.6456 24.7841 65.5816 24.7451C65.444 24.6904 65.2905 24.6904 65.1529 24.7451C63.8637 25.0108 62.5487 25.1306 61.2327 25.1023C58.8751 25.1023 58.4019 23.611 58.259 21.9946V21.8964H65.9656C66.0833 21.8941 66.1955 21.8463 66.2787 21.7631C66.362 21.6798 66.4097 21.5676 66.4121 21.4499V20.6462C66.4121 17.3064 66.0102 13.7344 61.2327 13.7344C55.58 13.7344 55.58 18.9495 55.5889 20.6551"
                fill="white"
            />
            <path
                d="M71.1271 19.423C71.2611 17.6995 71.7076 16.1189 74.1008 16.1189C76.1636 16.1189 76.5744 17.2262 76.6191 19.423V19.5123H71.1182L71.1271 19.423ZM68.4481 20.5928C68.4481 22.2985 68.4481 27.5136 74.1187 27.5047C75.5675 27.5619 77.015 27.3655 78.3961 26.9242C78.479 26.8937 78.5499 26.8371 78.5981 26.7632C78.6464 26.6892 78.6695 26.6016 78.664 26.5134V25.1025C78.6656 25.0275 78.6475 24.9534 78.6114 24.8875C78.5755 24.8217 78.5228 24.7665 78.4586 24.7274C78.3212 24.6718 78.1675 24.6718 78.03 24.7274C76.7436 24.9643 75.4347 25.057 74.1276 25.0043C71.779 25.0043 71.3147 23.513 71.1628 21.8966V21.7984H78.8605C78.9798 21.7984 79.0943 21.7517 79.1795 21.6682C79.2646 21.5847 79.3136 21.4711 79.3159 21.3519V20.5393C79.3159 17.1994 78.923 13.6274 74.1365 13.6274C68.4749 13.6274 68.4838 18.8426 68.4838 20.5482"
                fill="white"
            />
            <path
                d="M108.178 19.3694C108.294 17.6459 108.749 16.0653 111.151 16.0653C113.214 16.0653 113.625 17.1727 113.67 19.3694V19.4587H108.169L108.178 19.3694ZM105.499 20.5393C105.499 22.2449 105.499 27.46 111.169 27.4511C112.618 27.5071 114.065 27.3107 115.447 26.8706C115.532 26.8416 115.604 26.7858 115.654 26.7117C115.704 26.6376 115.728 26.5492 115.724 26.4599V25.0489C115.726 24.9726 115.707 24.8972 115.67 24.8309C115.632 24.7647 115.576 24.7103 115.509 24.6739C115.443 24.6456 115.372 24.6311 115.299 24.6311C115.227 24.6311 115.156 24.6456 115.089 24.6739C113.8 24.9383 112.485 25.058 111.169 25.0311C108.812 25.0311 108.347 23.5397 108.196 21.9234V21.8252H115.893C116.013 21.8252 116.127 21.7785 116.212 21.695C116.298 21.6115 116.346 21.4979 116.349 21.3787V20.5393C116.349 17.1994 115.947 13.6274 111.169 13.6274C105.508 13.6274 105.517 18.8426 105.517 20.5482"
                fill="white"
            />
            <path
                d="M47.1679 18.4403C49.8469 18.4403 50.7935 19.253 50.7935 21.548C50.7935 23.0929 50.3738 24.6645 47.1233 24.6645H43.2209V18.4135L47.1679 18.4403ZM46.9536 10.2962C49.7755 10.2962 50.1684 11.6267 50.1684 13.0823C50.1684 14.9308 49.195 15.8149 47.159 15.8238H43.2119V10.2962H46.9536ZM40.9437 7.67969C40.8158 7.67969 40.6932 7.73049 40.6028 7.82092C40.5123 7.91136 40.4615 8.03401 40.4615 8.16191V26.8077C40.4603 26.8718 40.472 26.9354 40.4956 26.995C40.5194 27.0546 40.5546 27.1088 40.5996 27.1545C40.6445 27.2002 40.6981 27.2366 40.7571 27.2614C40.8162 27.2861 40.8797 27.2989 40.9437 27.2989H47.0072C51.3382 27.2989 53.7226 25.245 53.7136 21.5569C53.7476 20.6294 53.5257 19.7105 53.0721 18.9009C52.6184 18.0912 51.9506 17.4221 51.1418 16.9669H51.0703L51.1418 16.9133C51.7464 16.4836 52.24 15.916 52.5817 15.2575C52.9232 14.5991 53.1032 13.8688 53.1064 13.127C53.1064 11.0999 52.2848 7.71541 46.8554 7.72434L40.9437 7.67969Z"
                fill="white"
            />
            <path
                d="M87.2279 9.16223C87.2261 9.45934 87.3127 9.75028 87.4765 9.99817C87.6402 10.2461 87.8738 10.4397 88.1478 10.5546C88.4218 10.6695 88.7237 10.7005 89.0154 10.6436C89.3069 10.5867 89.5747 10.4446 89.7855 10.2352C89.9962 10.0257 90.14 9.7584 90.1989 9.46719C90.2579 9.1759 90.2284 8.87379 90.115 8.59914C90.0016 8.32448 89.8096 8.08964 89.5622 7.92439C89.3158 7.75915 89.0253 7.67093 88.7282 7.67092C88.5316 7.66976 88.3367 7.70746 88.1548 7.78187C87.9728 7.85629 87.8073 7.96595 87.6679 8.10456C87.5284 8.24315 87.4178 8.40795 87.3423 8.58946C87.2668 8.77098 87.2279 8.96569 87.2279 9.16223Z"
                fill="white"
            />
            <path
                d="M17.4935 1.13413C21.7627 1.23392 25.8234 2.99994 28.8076 6.05461C31.7916 9.10925 33.4622 13.2102 33.4622 17.4805C33.4622 21.7508 31.7916 25.8517 28.8076 28.9064C25.8234 31.961 21.7627 33.7271 17.4935 33.8269C13.2244 33.7271 9.16362 31.961 6.17953 28.9064C3.19543 25.8517 1.52479 21.7508 1.52479 17.4805C1.52479 13.2102 3.19543 9.10925 6.17953 6.05461C9.16362 2.99994 13.2244 1.23392 17.4935 1.13413ZM17.4935 2.06192e-05C14.0375 0.00532039 10.6606 1.03522 7.78984 2.95952C4.91907 4.88382 2.68331 7.61611 1.36522 10.8109C0.0471355 14.0057 -0.294083 17.5197 0.384704 20.9084C1.06349 24.2971 2.73181 27.4085 5.17871 29.8492C7.62563 32.2898 10.7413 33.9502 14.1317 34.6204C17.5222 35.2905 21.0353 34.9403 24.2267 33.6141C27.4181 32.2878 30.1447 30.0451 32.0617 27.1694C33.9786 24.2937 34.9999 20.9143 34.9963 17.4582C34.9845 12.8192 33.1316 8.37473 29.8446 5.1012C26.5577 1.82768 22.1057 -0.0070949 17.4667 2.06192e-05"
                fill="white"
            />
            </g>
        </g>
        </g>
    </g>
    <defs>
        <linearGradient
        id="paint0_linear_193_492"
        x1="2.82463"
        y1="19.0212"
        x2="35.5173"
        y2="18.9755"
        gradientUnits="userSpaceOnUse"
        >
        <stop stop-color="#FF9900" />
        <stop offset="1" stop-color="#FFCC33" />
        </linearGradient>
        <clipPath id="clip0_193_492">
        <rect width="117" height="35.72" fill="white" />
        </clipPath>
        <clipPath id="clip1_193_492">
        <rect width="117" height="35.72" fill="white" />
        </clipPath>
        <clipPath id="clip2_193_492">
        <rect
            width="116.983"
            height="35.72"
            fill="white"
            transform="translate(0.00854492)"
        />
        </clipPath>
    </defs>
</svg>