<svg
  width="32"
  height="32"
  viewBox="0 0 32 32"
  fill="none"
  xmlns="http://www.w3.org/2000/svg"
>
  <g clip-path="url(#clip0_193_451)">
    <g clip-path="url(#clip1_193_451)">
      <g clip-path="url(#clip2_193_451)">
        <path
          d="M25.4118 6.58838H6.58826V26.3531H25.4118V6.58838Z"
          fill="white"
        />
        <path
          fill-rule="evenodd"
          clip-rule="evenodd"
          d="M0.941221 15.9585C0.964223 7.64184 7.7249 0.918457 16.0417 0.941465C24.3584 0.964467 31.0818 7.72515 31.0587 16.0419C31.0358 24.3586 24.2751 31.082 15.9583 31.059C7.6416 31.036 0.918214 24.2753 0.941221 15.9585ZM16.023 7.96889C13.8418 7.96286 13.568 7.97163 12.7112 8.00825C11.8561 8.04503 11.2721 8.17879 10.7609 8.37599C10.2321 8.57966 9.78324 8.85283 9.33556 9.29817C8.88758 9.74338 8.61194 10.1907 8.40468 10.7182C8.20416 11.2285 8.067 11.8119 8.02615 12.6665C7.98547 13.523 7.97468 13.7969 7.96865 15.9781C7.96261 18.1593 7.97156 18.4322 8.00801 19.289C8.04496 20.1441 8.17871 20.7281 8.37574 21.2393C8.57958 21.7681 8.85276 22.217 9.2981 22.6646C9.74314 23.1126 10.1904 23.3889 10.7178 23.5955C11.2282 23.7955 11.8117 23.9326 12.6663 23.9741C13.5229 24.0155 13.7965 24.0257 15.9775 24.0318C18.1589 24.0378 18.4318 24.029 19.2886 23.9924C20.1437 23.9556 20.7284 23.8218 21.2399 23.6246C21.7686 23.4209 22.2167 23.1471 22.6642 22.7016C23.1122 22.2564 23.3879 21.8091 23.5951 21.2815C23.794 20.7713 23.9311 20.1879 23.9736 19.3334C24.0145 18.4768 24.0253 18.2037 24.0313 16.0225C24.0374 13.8414 24.0281 13.5676 23.992 12.7108C23.9542 11.8557 23.8202 11.2717 23.6242 10.7604C23.4199 10.2317 23.1467 9.78281 22.7012 9.33514C22.2557 8.88716 21.8097 8.61152 21.2815 8.40509C20.7701 8.20506 20.1864 8.06808 19.3316 8.02656C18.4751 7.98521 18.2023 7.97491 16.0204 7.96888L16.023 7.96889ZM20.3024 10.7617C19.7703 10.7603 19.3375 11.1902 19.336 11.7225C19.3345 12.2546 19.7651 12.6875 20.2971 12.6889C20.8292 12.6904 21.262 12.26 21.2635 11.7278C21.2649 11.1958 20.8344 10.7632 20.3024 10.7617ZM16.012 11.8759C13.7344 11.8697 11.8826 13.7113 11.8763 15.989C11.87 18.2668 13.7116 20.1178 15.9894 20.1241C18.2672 20.1304 20.1183 18.2895 20.1246 16.0118C20.1309 13.7342 18.2898 11.8822 16.012 11.8759Z"
          fill="url(#paint0_linear_193_451)"
        />
        <path
          d="M16.0008 13.3228C17.4793 13.3228 18.678 14.5213 18.678 15.9999C18.678 17.4784 17.4793 18.6771 16.0008 18.6771C14.5222 18.6771 13.3236 17.4784 13.3236 15.9999C13.3236 14.5213 14.5222 13.3228 16.0008 13.3228Z"
          fill="white"
        />
      </g>
    </g>
  </g>
  <defs>
    <linearGradient
      id="paint0_linear_193_451"
      x1="16.0417"
      y1="0.941465"
      x2="15.9583"
      y2="31.059"
      gradientUnits="userSpaceOnUse"
    >
      <stop stop-color="#7523BF" />
      <stop offset="0.369792" stop-color="#C42A66" />
      <stop offset="1" stop-color="#DD903F" />
    </linearGradient>
    <clipPath id="clip0_193_451">
      <rect width="32" height="32" fill="white" />
    </clipPath>
    <clipPath id="clip1_193_451">
      <rect width="32" height="32" fill="white" />
    </clipPath>
    <clipPath id="clip2_193_451">
      <rect width="32" height="32" fill="white" />
    </clipPath>
  </defs>
</svg>
