<svg
        width="23"
        height="25"
        viewBox="0 0 23 25"
        fill="none"
        xmlns="http://www.w3.org/2000/svg"
      >
        <g clip-path="url(#clip0_193_521)">
          <g clip-path="url(#clip1_193_521)">
            <g clip-path="url(#clip2_193_521)">
              <path
                fill-rule="evenodd"
                clip-rule="evenodd"
                d="M16.2389 6.0796C19.1291 6.0796 20.978 8.77036 20.978 8.77036C20.978 8.77036 18.158 10.2418 18.158 13.4393C18.158 17.2331 21.7008 18.3371 21.7008 18.3371C21.7008 18.3371 18.9038 24.7202 15.7654 24.7202C14.0005 24.7202 13.8823 23.7427 11.5349 23.7427C9.49859 23.7427 8.81182 24.7202 7.25828 24.7202C4.29705 24.7202 0.469971 18.4987 0.469971 13.4393C0.469971 8.18329 4.34412 6.0796 6.77366 6.0796C8.90505 6.0796 9.79397 7.28606 11.5118 7.28606C12.9565 7.28606 14.0946 6.0796 16.2389 6.0796ZM15.7405 0.720215C16.1669 3.29559 13.7383 6.48113 10.8362 6.37775C10.4097 3.0999 13.5371 0.891907 15.7405 0.720215Z"
                fill="#7D858E"
              />
            </g>
          </g>
        </g>
        <defs>
          <clipPath id="clip0_193_521">
            <rect
              width="22"
              height="24"
              fill="white"
              transform="translate(0.469971 0.720215)"
            />
          </clipPath>
          <clipPath id="clip1_193_521">
            <rect
              width="22"
              height="24"
              fill="white"
              transform="translate(0.469971 0.720215)"
            />
          </clipPath>
          <clipPath id="clip2_193_521">
            <rect
              width="22"
              height="24"
              fill="white"
              transform="translate(0.469971 0.720215)"
            />
          </clipPath>
        </defs>
      </svg>