<svg
  width="32"
  height="32"
  viewBox="0 0 32 32"
  fill="none"
  xmlns="http://www.w3.org/2000/svg"
>
  <g clip-path="url(#clip0_193_457)">
    <g clip-path="url(#clip1_193_457)">
      <g clip-path="url(#clip2_193_457)">
        <path
          d="M16 32C24.8366 32 32 24.8366 32 16C32 7.16344 24.8366 0 16 0C7.16344 0 0 7.16344 0 16C0 24.8366 7.16344 32 16 32Z"
          fill="white"
        />
        <path
          d="M14.5517 14.4409V13.7045C14.2946 13.664 14.0349 13.6419 13.7746 13.6382C11.2544 13.6328 9.02312 15.2565 8.2664 17.6464C7.5095 20.0364 8.40286 22.6381 10.4716 24.0691C8.922 22.4202 8.49166 20.02 9.37295 17.9403C10.2542 15.8607 12.2824 14.4901 14.5517 14.4409Z"
          fill="#25F4EE"
        />
        <path
          d="M14.6739 22.6897C16.0697 22.6878 17.217 21.5908 17.2782 20.1997V7.78595H19.5516C19.5052 7.52659 19.4831 7.26347 19.4855 7H16.376V19.4017C16.3243 20.7999 15.1743 21.9074 13.7717 21.9097C13.3527 21.9061 12.9405 21.8033 12.5688 21.6097C12.81 21.9426 13.1263 22.214 13.4921 22.4016C13.8579 22.5893 14.2628 22.688 14.6739 22.6897ZM23.862 12V11.3192C23.0344 11.3197 22.2249 11.0767 21.5344 10.6207C22.1403 11.3204 22.9572 11.8045 23.862 12Z"
          fill="#25F4EE"
        />
        <path
          d="M21.3622 10.5345C20.7062 9.77165 20.3447 8.79105 20.3449 7.77588H19.5518C19.7588 8.91028 20.4135 9.90778 21.3622 10.5345ZM13.7221 16.7313C12.5143 16.7374 11.466 17.5587 11.1791 18.7232C10.8922 19.8878 11.4407 21.0966 12.5092 21.6552C12.2254 21.2669 12.0553 20.8073 12.0179 20.3278C11.9805 19.8484 12.0773 19.3679 12.2975 18.9404C12.7466 18.0679 13.6507 17.5191 14.6377 17.5198C14.9009 17.5231 15.1622 17.5636 15.4139 17.6402V14.474C15.1569 14.4358 14.8975 14.4157 14.6377 14.4138H14.4982V16.8216C14.2452 16.7543 13.9838 16.7239 13.7221 16.7313Z"
          fill="#FE2C55"
        />
        <path
          d="M23.8154 12.0864V14.4874C22.2551 14.4845 20.7354 13.9952 19.4714 13.0888V19.3976C19.4647 22.5457 16.8871 25.0941 13.7097 25.0941C12.5311 25.0966 11.3803 24.7361 10.4138 24.0616C12.0231 25.7766 14.5276 26.341 16.7273 25.4847C18.9269 24.6283 20.3736 22.5255 20.3741 20.184V13.8932C21.6424 14.7935 23.164 15.2765 24.7242 15.2738V12.1824C24.4187 12.1815 24.1142 12.1493 23.8154 12.0864Z"
          fill="#FE2C55"
        />
        <path
          d="M19.5087 19.3732V13.0282C20.7789 13.9349 22.3014 14.4206 23.8621 14.4167V12.0017C22.9404 11.8083 22.1065 11.321 21.4853 10.6132C20.4845 9.96872 19.7938 8.9426 19.5754 7.77588H17.2835V20.2727C17.2378 21.3876 16.4878 22.3513 15.4149 22.6738C14.3421 22.9962 13.1818 22.6069 12.524 21.7035C11.4556 21.1433 10.9072 19.9309 11.1941 18.7629C11.4808 17.595 12.5291 16.7713 13.7366 16.7651C13.9998 16.7674 14.2613 16.8082 14.5127 16.8859V14.4711C12.2339 14.5095 10.1932 15.8848 9.31061 17.9772C8.42811 20.0694 8.87043 22.4833 10.4383 24.1304C11.4138 24.786 12.5675 25.1254 13.7427 25.1023C16.9225 25.1023 19.5021 22.5392 19.5087 19.3732Z"
          fill="black"
        />
      </g>
    </g>
  </g>
  <defs>
    <clipPath id="clip0_193_457">
      <rect width="32" height="32" fill="white" />
    </clipPath>
    <clipPath id="clip1_193_457">
      <rect width="32" height="32" fill="white" />
    </clipPath>
    <clipPath id="clip2_193_457">
      <rect width="32" height="32" fill="white" />
    </clipPath>
  </defs>
</svg>
