<svg
  width="32"
  height="32"
  viewBox="0 0 32 32"
  fill="none"
  xmlns="http://www.w3.org/2000/svg"
>
  <g clip-path="url(#clip0_193_481)">
    <g clip-path="url(#clip1_193_481)">
      <g clip-path="url(#clip2_193_481)">
        <path
          d="M16 32C24.8366 32 32 24.8366 32 16C32 7.16344 24.8366 0 16 0C7.16344 0 0 7.16344 0 16C0 24.8366 7.16344 32 16 32Z"
          fill="#25D366"
        />
        <path
          d="M16.5274 24.9017H16.5234C14.9311 24.9011 13.3665 24.5016 11.9769 23.7436L6.93335 25.0667L8.28309 20.1366C7.4505 18.6937 7.0124 17.057 7.01312 15.3802C7.0152 10.1345 11.2832 5.8667 16.5273 5.8667C19.0724 5.86779 21.4612 6.85861 23.2575 8.65697C25.0537 10.4552 26.0424 12.8455 26.0414 15.3877C26.0393 20.6322 21.773 24.8995 16.5274 24.9017ZM12.2106 22.0212L12.4993 22.1926C13.7134 22.9131 15.1052 23.2943 16.5242 23.2949H16.5274C20.8859 23.2949 24.4333 19.7474 24.435 15.3871C24.4358 13.2741 23.6141 11.2874 22.1211 9.79269C20.6281 8.29796 18.6426 7.47438 16.5305 7.47365C12.1686 7.47365 8.6212 11.0207 8.61947 15.3807C8.61886 16.8749 9.03693 18.3301 9.82851 19.5891L10.0165 19.8883L9.21767 22.8064L12.2106 22.0212ZM21.3205 17.6501C21.2611 17.5509 21.1026 17.4914 20.8649 17.3724C20.6272 17.2534 19.4584 16.6784 19.2405 16.599C19.0226 16.5197 18.8641 16.48 18.7056 16.7179C18.5472 16.9559 18.0916 17.4914 17.9529 17.6501C17.8142 17.8087 17.6755 17.8286 17.4379 17.7096C17.2002 17.5906 16.4342 17.3396 15.5261 16.5296C14.8194 15.8993 14.3423 15.1208 14.2037 14.8828C14.065 14.6448 14.1889 14.5162 14.3079 14.3977C14.4148 14.2911 14.5456 14.1199 14.6645 13.9812C14.7833 13.8424 14.823 13.7432 14.9022 13.5846C14.9814 13.4259 14.9418 13.2871 14.8824 13.1681C14.823 13.0491 14.3475 11.879 14.1494 11.403C13.9565 10.9394 13.7605 11.0022 13.6146 10.9949C13.4761 10.988 13.3174 10.9865 13.1589 10.9865C13.0005 10.9865 12.7429 11.046 12.525 11.284C12.3071 11.522 11.693 12.0971 11.693 13.2672C11.693 14.4373 12.5448 15.5677 12.6637 15.7264C12.7825 15.8851 14.34 18.2862 16.7247 19.3159C17.2919 19.5609 17.7347 19.7071 18.08 19.8167C18.6494 19.9977 19.1677 19.9721 19.5772 19.9109C20.034 19.8426 20.9837 19.3358 21.1819 18.7806C21.3799 18.2252 21.3799 17.7492 21.3205 17.6501Z"
          fill="#FDFDFD"
        />
      </g>
    </g>
  </g>
  <defs>
    <clipPath id="clip0_193_481">
      <rect width="32" height="32" fill="white" />
    </clipPath>
    <clipPath id="clip1_193_481">
      <rect width="32" height="32" fill="white" />
    </clipPath>
    <clipPath id="clip2_193_481">
      <rect width="32" height="32" fill="white" />
    </clipPath>
  </defs>
</svg>
