<svg
    width="200"
    height="200"
    viewBox="0 0 200 200"
    fill="none"
    xmlns="http://www.w3.org/2000/svg"
    >
    <circle
        cx="100"
        cy="100"
        r="100"
        fill="url(#paint0_linear_104_877)"
    />
    <path
        fill-rule="evenodd"
        clip-rule="evenodd"
        d="M91.1571 67.708C92.4455 64.0625 95.9224 61.4583 99.9994 61.4583C104.076 61.4583 107.553 64.0625 108.842 67.708C109.417 69.3352 111.202 70.1881 112.83 69.613C114.457 69.0378 115.31 67.2524 114.735 65.6252C112.591 59.5607 106.808 55.2083 99.9994 55.2083C93.1913 55.2083 87.4078 59.5607 85.2643 65.6252C84.6892 67.2524 85.5421 69.0378 87.1693 69.613C88.7965 70.1881 90.5819 69.3352 91.1571 67.708ZM61.4467 83.7123C61.2245 83.5679 60.9908 83.4553 60.7509 83.3735C61.389 82.0501 62.1955 80.9009 63.2149 79.8815C68.0965 74.9999 75.9532 74.9999 91.6667 74.9999H108.333C124.047 74.9999 131.904 74.9999 136.785 79.8815C137.805 80.901 138.611 82.0503 139.249 83.3739C139.01 83.4557 138.777 83.5681 138.555 83.7123C129.803 89.401 124.305 92.959 119.736 95.2414C119.459 93.7985 118.19 92.7083 116.667 92.7083C114.941 92.7083 113.542 94.1074 113.542 95.8333V97.7419C104.711 100.407 95.2893 100.406 86.4584 97.7414V95.8333C86.4584 94.1074 85.0593 92.7083 83.3334 92.7083C81.81 92.7083 80.5413 93.7982 80.2645 95.2408C75.6959 92.9584 70.1977 89.4005 61.4467 83.7123ZM58.3334 108.333C58.3334 100.206 58.3334 94.181 59.0087 89.5819C68.4949 95.748 74.575 99.6804 80.2084 102.102V104.167C80.2084 105.892 81.6075 107.292 83.3334 107.292C85.0364 107.292 86.4212 105.929 86.4576 104.235C95.3338 106.575 104.666 106.575 113.542 104.235C113.579 105.93 114.964 107.292 116.667 107.292C118.393 107.292 119.792 105.892 119.792 104.167V102.103C125.425 99.6812 131.505 95.7488 140.991 89.5828C141.667 94.1817 141.667 100.207 141.667 108.333C141.667 124.047 141.667 131.903 136.785 136.785C131.904 141.667 124.047 141.667 108.333 141.667H91.6667C75.9532 141.667 68.0965 141.667 63.2149 136.785C58.3334 131.903 58.3334 124.047 58.3334 108.333Z"
        fill="black"
    />
    <defs>
        <linearGradient
        id="paint0_linear_104_877"
        x1="17.0614"
        y1="245.9"
        x2="258.099"
        y2="156.305"
        gradientUnits="userSpaceOnUse"
        >
        <stop offset="0.0152" stop-color="#FF9900" />
        <stop offset="0.9706" stop-color="#FFCD00" />
        </linearGradient>
    </defs>
</svg>