<svg
    width="200"
    height="200"
    viewBox="0 0 200 200"
    fill="none"
    xmlns="http://www.w3.org/2000/svg"
    >
    <circle
        cx="100"
        cy="100"
        r="100"
        fill="url(#paint0_linear_104_878)"
    />
    <path
        fill-rule="evenodd"
        clip-rule="evenodd"
        d="M64.4353 64.4352C58.3334 70.5371 58.3334 80.3581 58.3334 99.9999C58.3334 119.642 58.3334 129.463 64.4353 135.565C70.5373 141.667 80.3582 141.667 100 141.667C119.642 141.667 129.463 141.667 135.565 135.565C141.667 129.463 141.667 119.642 141.667 99.9999C141.667 80.3581 141.667 70.5371 135.565 64.4352C129.463 58.3333 119.642 58.3333 100 58.3333C80.3582 58.3333 70.5373 58.3333 64.4353 64.4352ZM107.292 91.6666C107.292 93.3925 108.691 94.7916 110.417 94.7916H113.289L104.903 103.177C104.496 103.584 103.837 103.584 103.43 103.177L96.8227 96.5698C93.9751 93.7222 89.3583 93.7223 86.5107 96.5698L76.957 106.124C75.7366 107.344 75.7366 109.323 76.957 110.543C78.1774 111.763 80.156 111.763 81.3764 110.543L90.9301 100.989C91.3369 100.582 91.9965 100.582 92.4033 100.989L99.0107 107.597C101.858 110.444 106.475 110.444 109.323 107.597L117.708 99.211V102.083C117.708 103.809 119.107 105.208 120.833 105.208C122.559 105.208 123.958 103.809 123.958 102.083V91.6666C123.958 89.9407 122.559 88.5416 120.833 88.5416H110.417C108.691 88.5416 107.292 89.9407 107.292 91.6666Z"
        fill="black"
    />
    <defs>
        <linearGradient
        id="paint0_linear_104_878"
        x1="17.0614"
        y1="245.9"
        x2="258.099"
        y2="156.305"
        gradientUnits="userSpaceOnUse"
        >
        <stop offset="0.0152" stop-color="#FF9900" />
        <stop offset="0.9706" stop-color="#FFCD00" />
        </linearGradient>
    </defs>
</svg>