<svg xmlns="http://www.w3.org/2000/svg" width="71" height="84" viewBox="0 0 71 84" fill="none">
<path fill-rule="evenodd" clip-rule="evenodd" d="M35.5 0C15.8939 0 0 14.431 0 32.2326C0 41.7765 4.57252 50.3546 11.8267 56.2522C14.2445 58.218 16.0357 59.6743 17.3051 60.731C17.9398 61.2593 18.4251 61.672 18.7833 61.9888C18.9618 62.1467 19.0983 62.2716 19.2001 62.3685C19.2504 62.4164 19.2883 62.4537 19.3158 62.4816C19.3427 62.5089 19.3555 62.5231 19.3555 62.5231C20.475 63.7775 20.7173 64.101 20.8616 64.3942C21.0059 64.6874 21.1098 65.0672 21.3922 66.6612C21.5037 67.2905 21.5152 68.3684 21.5152 71.3023L21.5151 71.4282C21.5151 73.1465 21.515 74.6285 21.6364 75.8448C21.7648 77.1309 22.049 78.4044 22.8123 79.6046C23.662 80.941 24.8842 82.0507 26.3561 82.8223C27.678 83.5153 29.0806 83.7733 30.4971 83.8899C31.8366 84.0001 33.4689 84.0001 35.3612 84H35.6388C37.5311 84.0001 39.1634 84.0001 40.5029 83.8899C41.9194 83.7733 43.322 83.5153 44.6439 82.8223C46.1158 82.0507 47.338 80.941 48.1877 79.6046C48.951 78.4044 49.2352 77.1309 49.3636 75.8448C49.485 74.6285 49.4849 73.1464 49.4848 71.4281V71.3023C49.4848 68.3684 49.4963 67.2905 49.6078 66.6612C49.8902 65.0672 49.9941 64.6874 50.1384 64.3942C50.2827 64.101 50.525 63.7774 51.6445 62.5231C51.6445 62.5231 51.6561 62.5102 51.6842 62.4816C51.7117 62.4537 51.7496 62.4164 51.7999 62.3685C51.9017 62.2716 52.0382 62.1467 52.2167 61.9888C52.5749 61.672 53.0602 61.2593 53.6949 60.731C54.9643 59.6743 56.7555 58.218 59.1733 56.2522C66.4275 50.3546 71 41.7765 71 32.2326C71 14.431 55.1061 0 35.5 0ZM43.0026 74.2326H27.9974C28.0114 74.6397 28.0326 74.9956 28.0646 75.3158C28.1524 76.1954 28.3005 76.5148 28.4021 76.6744C28.6853 77.1199 29.0927 77.4898 29.5833 77.747C29.7592 77.8391 30.1109 77.9736 31.0797 78.0534C32.0929 78.1367 33.4298 78.1395 35.5 78.1395C37.5702 78.1395 38.9071 78.1367 39.9203 78.0534C40.8891 77.9736 41.2408 77.8391 41.4167 77.747C41.9073 77.4898 42.3147 77.1199 42.5979 76.6744C42.6994 76.5148 42.8476 76.1954 42.9354 75.3158C42.9674 74.9956 42.9886 74.6397 43.0026 74.2326ZM40.7562 25.9412C42.2066 26.8818 42.5425 28.7119 41.5065 30.0287L35.9308 37.1163H42.5687C43.7776 37.1163 44.8851 37.7297 45.4383 38.7057C45.9914 39.6817 45.8975 40.8565 45.1948 41.7497L35.974 53.4706C34.9381 54.7875 32.9225 55.0925 31.4721 54.1519C30.0217 53.2112 29.6858 51.3812 30.7218 50.0643L36.2975 42.9767H29.6596C28.4507 42.9767 27.3432 42.3633 26.79 41.3873C26.2368 40.4114 26.3308 39.2365 27.0334 38.3433L36.2542 26.6224C37.2902 25.3055 39.3058 25.0005 40.7562 25.9412Z" fill="black"/>
</svg>