<svg xmlns="http://www.w3.org/2000/svg" width="84" height="84" viewBox="0 0 84 84" fill="none">
<path fill-rule="evenodd" clip-rule="evenodd" d="M6.43495 6.43519C0.333008 12.5371 0.333008 22.3581 0.333008 41.9999C0.333008 61.6418 0.333008 71.4627 6.43495 77.5647C12.5369 83.6666 22.3578 83.6666 41.9997 83.6666C61.6415 83.6666 71.4625 83.6666 77.5644 77.5647C83.6664 71.4627 83.6664 61.6418 83.6664 41.9999C83.6664 22.3581 83.6664 12.5371 77.5644 6.43519C71.4625 0.333252 61.6415 0.333252 41.9997 0.333252C22.3578 0.333252 12.5369 0.333252 6.43495 6.43519ZM49.2913 33.6666C49.2913 35.3925 50.6905 36.7916 52.4163 36.7916H55.2886L46.9029 45.1773C46.4961 45.5841 45.8366 45.5841 45.4298 45.1773L38.8223 38.5698C35.9748 35.7222 31.3579 35.7223 28.5104 38.5698L18.9566 48.1235C17.7362 49.3439 17.7362 51.3226 18.9566 52.543C20.177 53.7634 22.1557 53.7634 23.3761 52.543L32.9298 42.9892C33.3366 42.5824 33.9961 42.5824 34.4029 42.9892L41.0104 49.5967C43.8579 52.4443 48.4748 52.4443 51.3223 49.5967L59.708 41.211V44.0833C59.708 45.8091 61.1071 47.2083 62.833 47.2083C64.5589 47.2083 65.958 45.8091 65.958 44.0833V33.6666C65.958 31.9407 64.5589 30.5416 62.833 30.5416H52.4163C50.6905 30.5416 49.2913 31.9407 49.2913 33.6666Z" fill="black"/>
</svg>