<svg
    width="200"
    height="200"
    viewBox="0 0 200 200"
    fill="none"
    xmlns="http://www.w3.org/2000/svg"
    >
    <circle
        cx="100"
        cy="100"
        r="100"
        fill="url(#paint0_linear_104_880)"
    />
    <path
        fill-rule="evenodd"
        clip-rule="evenodd"
        d="M105.227 139.429L107.585 135.582C109.414 132.598 110.329 131.107 111.798 130.282C113.267 129.457 115.116 129.426 118.815 129.364C124.276 129.274 127.701 128.951 130.573 127.802C135.903 125.67 140.137 121.582 142.344 116.437C144 112.577 144 107.685 144 97.9002V93.7001C144 79.9517 144 73.0774 140.795 68.0276C139.002 65.2019 136.541 62.8261 133.614 61.0946C128.384 58 121.264 58 107.025 58H93.975C79.7356 58 72.6159 58 67.3857 61.0946C64.4591 62.8261 61.9985 65.2019 60.2051 68.0276C57 73.0774 57 79.9517 57 93.7001V97.9002C57 107.685 57 112.577 58.6556 116.437C60.8631 121.582 65.0973 125.67 70.4266 127.802C73.299 128.95 76.7238 129.274 82.1847 129.364C85.8837 129.426 87.7332 129.457 89.2021 130.282C90.6711 131.107 91.5857 132.598 93.4147 135.582L95.7729 139.429C97.8747 142.857 103.125 142.857 105.227 139.429ZM80.925 90.4021C80.925 97.763 90.3354 105.588 96.1068 109.695C98.0824 111.101 99.0702 111.804 100.5 111.804C101.93 111.804 102.918 111.101 104.893 109.695C110.665 105.588 120.075 97.7631 120.075 90.402C120.075 79.1579 109.308 74.9599 100.5 83.6459C91.6916 74.9599 80.925 79.1579 80.925 90.4021Z"
        fill="black"
    />
    <defs>
        <linearGradient
        id="paint0_linear_104_880"
        x1="17.0614"
        y1="245.9"
        x2="258.099"
        y2="156.305"
        gradientUnits="userSpaceOnUse"
        >
        <stop offset="0.0152" stop-color="#FF9900" />
        <stop offset="0.9706" stop-color="#FFCD00" />
        </linearGradient>
    </defs>
</svg>