<svg xmlns="http://www.w3.org/2000/svg" width="87" height="84" viewBox="0 0 87 84" fill="none">
<path fill-rule="evenodd" clip-rule="evenodd" d="M48.2269 81.4286L50.5851 77.582C52.4142 74.5984 53.3287 73.1066 54.7977 72.2816C56.2667 71.4567 58.1162 71.4259 61.8152 71.3644C67.276 71.2736 70.701 70.9505 73.5734 69.8018C78.9027 67.6704 83.1369 63.5822 85.3444 58.4366C87 54.5774 87 49.685 87 39.9002V35.7001C87 21.9517 87 15.0774 83.7949 10.0276C82.0015 7.2019 79.5409 4.82615 76.6143 3.09457C71.3841 0 64.2644 0 50.025 0H36.975C22.7356 0 15.6159 0 10.3857 3.09457C7.45907 4.82615 4.99849 7.2019 3.20508 10.0276C0 15.0774 0 21.9517 0 35.7001V39.9002C0 49.685 0 54.5774 1.65562 58.4366C3.86311 63.5822 8.09727 67.6704 13.4266 69.8018C16.299 70.9505 19.7238 71.2736 25.1847 71.3644C28.8837 71.4259 30.7332 71.4567 32.2021 72.2816C33.6711 73.1066 34.5857 74.5984 36.4147 77.582L38.7729 81.4286C40.8747 84.8571 46.1252 84.8571 48.2269 81.4286ZM23.925 32.4021C23.925 39.763 33.3354 47.5879 39.1068 51.6948C41.0824 53.1006 42.0702 53.8035 43.5 53.8035C44.9298 53.8035 45.9176 53.1006 47.8933 51.6948C53.6647 47.588 63.075 39.7631 63.075 32.402C63.075 21.1579 52.3084 16.9599 43.5 25.6459C34.6916 16.9599 23.925 21.1579 23.925 32.4021Z" fill="black"/>
</svg>