<svg xmlns="http://www.w3.org/2000/svg" width="84" height="87" viewBox="0 0 84 87" fill="none">
<path fill-rule="evenodd" clip-rule="evenodd" d="M33.1562 12.708C34.4447 9.06254 37.9215 6.45825 41.9986 6.45825C46.0756 6.45825 49.5524 9.06254 50.8409 12.708C51.4161 14.3352 53.2014 15.1881 54.8287 14.613C56.4559 14.0378 57.3088 12.2524 56.7337 10.6252C54.5902 4.5607 48.8067 0.208252 41.9986 0.208252C35.1905 0.208252 29.407 4.56069 27.2635 10.6252C26.6883 12.2524 27.5412 14.0378 29.1684 14.613C30.7957 15.1881 32.5811 14.3352 33.1562 12.708ZM3.44637 28.7123C3.22415 28.5679 2.99039 28.4553 2.7505 28.3735C3.3886 27.0501 4.19514 25.9009 5.21456 24.8815C10.0961 19.9999 17.9529 19.9999 33.6663 19.9999H50.333C66.0465 19.9999 73.9032 19.9999 78.7848 24.8815C79.8043 25.901 80.6109 27.0503 81.2491 28.3739C81.0096 28.4557 80.7762 28.5681 80.5544 28.7123C71.8026 34.401 66.3042 37.959 61.7354 40.2414C61.4588 38.7985 60.1899 37.7083 58.6663 37.7083C56.9405 37.7083 55.5413 39.1074 55.5413 40.8333V42.7419C46.7103 45.4066 37.289 45.4064 28.458 42.7414V40.8333C28.458 39.1074 27.0589 37.7083 25.333 37.7083C23.8097 37.7083 22.5409 38.7982 22.2641 40.2408C17.6956 37.9584 12.1973 34.4005 3.44637 28.7123ZM0.333008 53.3333C0.333008 45.2063 0.333008 39.181 1.00834 34.5819C10.4945 40.748 16.5746 44.6804 22.208 47.1022V49.1666C22.208 50.8925 23.6071 52.2916 25.333 52.2916C27.036 52.2916 28.4209 50.9293 28.4573 49.235C37.3334 51.5752 46.6659 51.5754 55.5421 49.2354C55.5787 50.9295 56.9635 52.2916 58.6663 52.2916C60.3922 52.2916 61.7913 50.8925 61.7913 49.1666V47.1028C67.4249 44.6812 73.5049 40.7488 82.9911 34.5828C83.6664 39.1817 83.6664 45.2068 83.6664 53.3333C83.6664 69.0467 83.6664 76.9035 78.7848 81.785C73.9032 86.6666 66.0465 86.6666 50.333 86.6666H33.6663C17.9529 86.6666 10.0961 86.6666 5.21456 81.785C0.333008 76.9035 0.333008 69.0467 0.333008 53.3333Z" fill="black"/>
</svg>