<svg
    width="200"
    height="200"
    viewBox="0 0 200 200"
    fill="none"
    xmlns="http://www.w3.org/2000/svg"
>
    <circle
    cx="100"
    cy="100"
    r="100"
    fill="url(#paint0_linear_104_881)"
    />
    <path
    fill-rule="evenodd"
    clip-rule="evenodd"
    d="M100.5 58C80.8939 58 65 72.431 65 90.2326C65 99.7765 69.5725 108.355 76.8267 114.252C79.2445 116.218 81.0357 117.674 82.3051 118.731C82.9398 119.259 83.4251 119.672 83.7833 119.989C83.9618 120.147 84.0983 120.272 84.2001 120.368C84.2504 120.416 84.2883 120.454 84.3158 120.482C84.3427 120.509 84.3555 120.523 84.3555 120.523C85.475 121.777 85.7173 122.101 85.8616 122.394C86.0059 122.687 86.1098 123.067 86.3922 124.661C86.5037 125.291 86.5152 126.368 86.5152 129.302L86.5151 129.428C86.5151 131.146 86.515 132.629 86.6364 133.845C86.7648 135.131 87.049 136.404 87.8123 137.605C88.662 138.941 89.8842 140.051 91.3561 140.822C92.678 141.515 94.0806 141.773 95.4971 141.89C96.8366 142 98.4689 142 100.361 142H100.639C102.531 142 104.163 142 105.503 141.89C106.919 141.773 108.322 141.515 109.644 140.822C111.116 140.051 112.338 138.941 113.188 137.605C113.951 136.404 114.235 135.131 114.364 133.845C114.485 132.629 114.485 131.146 114.485 129.428V129.302C114.485 126.368 114.496 125.291 114.608 124.661C114.89 123.067 114.994 122.687 115.138 122.394C115.283 122.101 115.525 121.777 116.644 120.523C116.644 120.523 116.656 120.51 116.684 120.482C116.712 120.454 116.75 120.416 116.8 120.368C116.902 120.272 117.038 120.147 117.217 119.989C117.575 119.672 118.06 119.259 118.695 118.731C119.964 117.674 121.756 116.218 124.173 114.252C131.427 108.355 136 99.7765 136 90.2326C136 72.431 120.106 58 100.5 58ZM108.003 132.233H92.9974C93.0114 132.64 93.0326 132.996 93.0646 133.316C93.1524 134.195 93.3005 134.515 93.4021 134.674C93.6853 135.12 94.0927 135.49 94.5833 135.747C94.7592 135.839 95.1109 135.974 96.0797 136.053C97.0929 136.137 98.4298 136.14 100.5 136.14C102.57 136.14 103.907 136.137 104.92 136.053C105.889 135.974 106.241 135.839 106.417 135.747C106.907 135.49 107.315 135.12 107.598 134.674C107.699 134.515 107.848 134.195 107.935 133.316C107.967 132.996 107.989 132.64 108.003 132.233ZM105.756 83.9412C107.207 84.8818 107.542 86.7119 106.507 88.0287L100.931 95.1163H107.569C108.778 95.1163 109.885 95.7297 110.438 96.7057C110.991 97.6817 110.897 98.8565 110.195 99.7497L100.974 111.471C99.9381 112.787 97.9225 113.092 96.4721 112.152C95.0217 111.211 94.6858 109.381 95.7218 108.064L101.297 100.977H94.6596C93.4507 100.977 92.3432 100.363 91.79 99.3873C91.2368 98.4114 91.3308 97.2365 92.0334 96.3433L101.254 84.6224C102.29 83.3055 104.306 83.0005 105.756 83.9412Z"
    fill="black"
    />
    <defs>
    <linearGradient
        id="paint0_linear_104_881"
        x1="17.0614"
        y1="245.9"
        x2="258.099"
        y2="156.305"
        gradientUnits="userSpaceOnUse"
    >
        <stop offset="0.0152" stop-color="#FF9900" />
        <stop offset="0.9706" stop-color="#FFCD00" />
    </linearGradient>
    </defs>
</svg>