<svg
    width="200"
    height="200"
    viewBox="0 0 200 200"
    fill="none"
    xmlns="http://www.w3.org/2000/svg"
    >
    <circle
        cx="100"
        cy="100"
        r="100"
        fill="url(#paint0_linear_104_879)"
    />
    <path
        d="M114.817 110.615L112.92 112.613C112.92 112.613 108.409 117.362 96.0963 104.4C83.7838 91.4368 88.2946 86.6878 88.2946 86.6878L89.4897 85.4296C92.4336 82.3302 92.7112 77.354 90.1427 73.7213L84.8886 66.2901C81.7095 61.7937 75.5665 61.1998 71.9227 65.036L65.3827 71.9214C63.576 73.8236 62.3652 76.2894 62.512 79.0247C62.8876 86.0227 65.878 101.079 82.564 118.647C100.259 137.276 116.862 138.016 123.651 137.346C125.799 137.134 127.666 135.976 129.171 134.392L135.09 128.16C139.086 123.954 137.959 116.742 132.847 113.8L124.887 109.218C121.53 107.286 117.441 107.854 114.817 110.615Z"
        fill="black"
    />
    <path
        d="M105.248 57.8335C105.524 56.1298 107.134 54.9741 108.838 55.2499C108.943 55.2701 109.283 55.3335 109.46 55.3731C109.816 55.4523 110.312 55.5742 110.93 55.7543C112.167 56.1145 113.894 56.7078 115.968 57.6584C120.119 59.5615 125.643 62.8907 131.376 68.6232C137.108 74.3557 140.437 79.88 142.34 84.0311C143.291 86.1045 143.884 87.832 144.245 89.0686C144.425 89.687 144.547 90.1829 144.626 90.5385C144.665 90.7162 144.694 90.859 144.714 90.9644L144.738 91.0944C145.014 92.7981 143.869 94.4753 142.165 94.7511C140.467 95.0261 138.866 93.876 138.584 92.1803C138.575 92.1348 138.551 92.0124 138.525 91.8971C138.474 91.6663 138.385 91.3004 138.244 90.8164C137.962 89.8484 137.472 88.4095 136.659 86.6358C135.035 83.0929 132.114 78.2004 126.956 73.0427C121.798 67.8849 116.906 64.9641 113.363 63.3398C111.589 62.5266 110.151 62.0369 109.182 61.7549C108.699 61.614 108.09 61.4744 107.859 61.423C106.164 61.1404 104.973 59.5324 105.248 57.8335Z"
        fill="black"
    />
    <path
        fill-rule="evenodd"
        clip-rule="evenodd"
        d="M106.19 72.2063C106.665 70.5468 108.394 69.5859 110.054 70.06L109.195 73.0648C110.054 70.06 110.054 70.06 110.054 70.06L110.06 70.0618L110.066 70.0636L110.08 70.0677L110.112 70.0773L110.195 70.103C110.258 70.1231 110.336 70.1492 110.43 70.1824C110.617 70.2488 110.864 70.3433 111.167 70.4733C111.774 70.7334 112.604 71.1352 113.623 71.7382C115.662 72.9452 118.446 74.9501 121.717 78.2208C124.988 81.4915 126.993 84.2756 128.2 86.3151C128.803 87.3338 129.204 88.1633 129.464 88.7703C129.594 89.0737 129.689 89.321 129.755 89.5081C129.788 89.6017 129.815 89.6801 129.835 89.743L129.86 89.8254L129.87 89.8577L129.874 89.8716L129.876 89.878C129.876 89.878 129.878 89.884 126.873 90.7425L129.878 89.884C130.352 91.5435 129.391 93.2731 127.731 93.7472C126.086 94.2173 124.372 93.2767 123.881 91.6431L123.865 91.5982C123.843 91.5356 123.797 91.4123 123.72 91.2323C123.566 90.8726 123.286 90.2841 122.821 89.4983C121.892 87.9285 120.214 85.5567 117.298 82.6402C114.381 79.7237 112.009 78.0458 110.439 77.1168C109.654 76.6517 109.065 76.3721 108.705 76.2179C108.525 76.1408 108.402 76.0948 108.34 76.0726L108.295 76.0572C106.661 75.5661 105.72 73.8517 106.19 72.2063Z"
        fill="black"
    />
    <defs>
        <linearGradient
        id="paint0_linear_104_879"
        x1="17.0614"
        y1="245.9"
        x2="258.099"
        y2="156.305"
        gradientUnits="userSpaceOnUse"
        >
        <stop offset="0.0152" stop-color="#FF9900" />
        <stop offset="0.9706" stop-color="#FFCD00" />
        </linearGradient>
    </defs>
</svg>