<svg xmlns="http://www.w3.org/2000/svg" width="100" height="100" viewBox="0 0 100 100" fill="none">
<path d="M64.8173 60.6154L62.9196 62.6133C62.9196 62.6133 58.4089 67.3624 46.0963 54.3996C33.7838 41.4368 38.2946 36.6878 38.2946 36.6878L39.4897 35.4296C42.4336 32.3302 42.7112 27.354 40.1427 23.7213L34.8886 16.2901C31.7095 11.7937 25.5665 11.1998 21.9227 15.036L15.3827 21.9214C13.576 23.8236 12.3652 26.2894 12.512 29.0247C12.8876 36.0227 15.878 51.0794 32.564 68.6466C50.2589 87.276 66.8618 88.0164 73.6511 87.3462C75.7987 87.1343 77.6664 85.9762 79.1713 84.3917L85.0903 78.1601C89.0857 73.9538 87.9592 66.7424 82.8472 63.7999L74.8868 59.218C71.5302 57.286 67.4407 57.8535 64.8173 60.6154Z" fill="black"/>
<path d="M55.2475 7.83353C55.5234 6.12982 57.1339 4.97409 58.8377 5.24991C58.9431 5.2701 59.2824 5.33352 59.4602 5.37311C59.8157 5.45229 60.3117 5.5742 60.93 5.75431C62.1666 6.11449 63.8941 6.70784 65.9675 7.65841C70.1187 9.56155 75.6429 12.8907 81.3754 18.6232C87.1079 24.3557 90.4371 29.88 92.3403 34.0311C93.2908 36.1045 93.8842 37.832 94.2444 39.0686C94.4245 39.687 94.5464 40.1829 94.6255 40.5385C94.6651 40.7162 94.6941 40.859 94.7143 40.9644L94.7382 41.0944C95.014 42.7981 93.8688 44.4753 92.1651 44.7511C90.4663 45.0261 88.8659 43.876 88.5833 42.1803C88.5746 42.1348 88.5507 42.0124 88.525 41.8971C88.4736 41.6663 88.3847 41.3004 88.2437 40.8164C87.9617 39.8484 87.472 38.4095 86.6589 36.6358C85.0346 33.0929 82.1138 28.2004 76.956 23.0427C71.7982 17.8849 66.9058 14.9641 63.3629 13.3398C61.5892 12.5266 60.1503 12.0369 59.1822 11.7549C58.6983 11.614 58.09 11.4744 57.8592 11.423C56.1635 11.1404 54.9725 9.53237 55.2475 7.83353Z" fill="black"/>
<path fill-rule="evenodd" clip-rule="evenodd" d="M56.1902 22.2063C56.6644 20.5468 58.394 19.5859 60.0535 20.06L59.195 23.0648C60.0535 20.06 60.0535 20.06 60.0535 20.06L60.0595 20.0618L60.0659 20.0636L60.0798 20.0677L60.1121 20.0773L60.1945 20.103C60.2574 20.1231 60.3358 20.1492 60.4294 20.1824C60.6165 20.2488 60.8638 20.3433 61.1672 20.4733C61.7742 20.7334 62.6036 21.1352 63.6224 21.7382C65.6619 22.9452 68.446 24.9501 71.7167 28.2208C74.9874 31.4915 76.9923 34.2756 78.1993 36.3151C78.8023 37.3338 79.204 38.1633 79.4642 38.7703C79.5942 39.0737 79.6886 39.321 79.755 39.5081C79.7882 39.6017 79.8144 39.6801 79.8345 39.743L79.8602 39.8254L79.8698 39.8577L79.8739 39.8716L79.8757 39.878C79.8757 39.878 79.8774 39.884 76.8727 40.7425L79.8774 39.884C80.3516 41.5435 79.3907 43.2731 77.7312 43.7472C76.0858 44.2173 74.3714 43.2767 73.8803 41.6431L73.8649 41.5982C73.8426 41.5356 73.7967 41.4123 73.7195 41.2323C73.5654 40.8726 73.2858 40.2841 72.8207 39.4983C71.8917 37.9285 70.2137 35.5567 67.2973 32.6402C64.3808 29.7237 62.0089 28.0458 60.4392 27.1168C59.6534 26.6517 59.0649 26.3721 58.7052 26.2179C58.5252 26.1408 58.4019 26.0948 58.3393 26.0726L58.2944 26.0572C56.6608 25.5661 55.7201 23.8517 56.1902 22.2063Z" fill="black"/>
</svg>