<svg xmlns="http://www.w3.org/2000/svg" width="410" height="410" viewBox="0 0 410 410" fill="none">
<path d="M194.35 126.924C184.1 129.727 173.529 138.055 168.725 147.104L166.562 151.188L171.928 155.271C180.896 161.998 194.27 166.562 205 166.562C215.73 166.562 229.104 161.998 238.072 155.271L243.438 151.188L241.275 147.104C240.074 144.781 236.711 140.537 233.828 137.654C225.74 129.486 216.371 125.723 204.6 125.803C201.076 125.803 196.432 126.363 194.35 126.924Z" fill="#FFBF00"/>
<path d="M200.996 84.2423C193.069 85.6036 185.862 93.0509 184.66 101.219C183.539 108.506 186.903 116.434 193.069 120.918C204.84 129.406 221.817 122.92 225.02 108.586C226.221 103.301 225.34 98.5762 222.297 93.5313C218.053 86.4044 209.645 82.7208 200.996 84.2423Z" fill="#F9C48F"/>
<path d="M263.137 222.617C260.174 223.578 256.33 227.102 254.969 230.385C254.088 232.467 253.848 242.156 253.848 282.035C253.848 309.021 253.607 333.045 253.367 335.287L252.807 339.531L249.523 337.449C247.762 336.328 244.799 334.807 243.037 334.006C241.275 333.205 235.91 330.162 231.025 327.199C223.658 322.795 221.656 321.914 218.613 321.914C209.164 321.914 202.838 330.803 206.361 338.811C207.803 342.014 210.125 343.936 229.584 357.709C241.516 366.197 251.686 373.725 252.246 374.365C253.127 375.406 260.174 375.566 309.182 375.566H365.156V337.689C365.156 314.627 364.756 298.531 364.275 296.289C363.154 291.404 360.272 287.881 355.947 286.279C348.74 283.477 341.693 286.68 338.25 294.207C336.729 297.57 336.408 297.891 336.408 296.209C336.248 291.244 328.961 285.078 323.115 285.078C317.27 285.078 309.982 291.244 309.822 296.209C309.822 297.891 309.502 297.57 307.981 294.287C305.658 289.162 302.055 286.119 297.57 285.479C291.084 284.518 285.799 287.4 282.996 293.406L281.074 297.49V265.299C281.074 244.559 280.754 232.307 280.193 230.865C277.631 224.059 270.264 220.535 263.137 222.617Z" fill="#F9C48F"/>
<path d="M66.4648 27.627V34.4336H73.2715H80.0781V27.627V20.8203H73.2715H66.4648V27.627Z" fill="#FFA201"/>
<path d="M93.6914 27.627V34.4336H100.498H107.305V27.627V20.8203H100.498H93.6914V27.627Z" fill="#FFA201"/>
<path d="M121.719 27.627V34.4336H128.525H135.332V27.627V20.8203H128.525H121.719V27.627Z" fill="#FFA201"/>
<path d="M364.916 55.8145C364.596 56.0547 364.355 109.227 364.355 173.93V291.484H385.576H406.797V284.678V277.871H392.783H378.77V166.562V55.2539H372.123C368.439 55.2539 365.156 55.4941 364.916 55.8145Z" fill="#FFA201"/>
<path d="M115.312 222.217V229.023H121.719H128.125V222.217V215.41H121.719H115.312V222.217Z" fill="#FFA201"/>
<path d="M142.539 222.217V229.023H149.346H156.152V222.217V215.41H149.346H142.539V222.217Z" fill="#FFA201"/>
<path d="M170.566 222.217V229.023H177.373H184.18V222.217V215.41H177.373H170.566V222.217Z" fill="#FFA201"/>
<path d="M198.594 222.217V229.023H205H211.406V222.217V215.41H205H198.594V222.217Z" fill="#FFA201"/>
<path d="M225.82 222.217V229.023H232.627H239.434V222.217V215.41H232.627H225.82V222.217Z" fill="#FFA201"/>
<path d="M3.20312 284.678V291.484H24.0234H44.8438V284.678V277.871H24.0234H3.20312V284.678Z" fill="#FFA201"/>
<path d="M310.623 58.5371L261.455 108.346L260.895 114.031C259.613 126.203 257.131 133.41 251.365 142.139C244.719 152.068 235.43 159.275 224.219 163.439C217.412 165.842 206.361 167.684 202.838 166.963C201.557 166.643 200.996 166.723 201.477 167.123C202.117 167.523 198.193 172.168 189.705 180.977L176.973 194.189L236.391 194.59C295.408 194.99 295.889 194.99 299.652 196.752C315.348 203.959 320.953 223.658 311.504 237.992C306.619 245.279 298.611 249.604 288.201 250.404L281.875 250.885V271.785V292.605L284.918 289.723C289.002 285.799 290.684 285.078 295.648 285.078C300.373 285.078 304.137 286.92 306.379 290.283C308.141 292.926 310.223 292.846 312.225 289.963C316.869 283.477 329.361 283.477 334.006 289.963C336.088 292.926 338.01 292.926 340.092 290.043C342.334 287 346.578 285.078 351.143 285.078C355.467 285.078 358.59 286.52 361.393 289.883C362.514 291.164 363.715 292.285 364.115 292.285C364.436 292.285 364.596 229.824 364.355 153.59C363.955 20.2598 363.875 14.7344 362.434 11.7715C361.633 10.1699 360.672 8.80859 360.352 8.80859C360.031 8.80859 337.689 31.2305 310.623 58.5371Z" fill="#FFA101"/>
<path d="M198.113 222.217C198.113 226.141 198.193 227.902 198.354 226.061C198.514 224.219 198.514 220.936 198.354 218.854C198.193 216.772 198.113 218.213 198.113 222.217Z" fill="#FFA101"/>
<path d="M211.727 222.217C211.727 226.141 211.807 227.902 211.967 226.061C212.127 224.219 212.127 220.936 211.967 218.854C211.807 216.772 211.727 218.213 211.727 222.217Z" fill="#FFA101"/>
<path d="M107.385 264.338L94.252 277.871H69.9082H45.6445V284.518V291.244L71.5098 291.725C85.6836 292.045 132.369 292.285 175.211 292.285H253.047V271.465V250.645L186.822 250.725L120.518 250.805L107.385 264.338Z" fill="#FFA101"/>
<path d="M17.1367 56.5352C12.1719 58.2969 7.28711 62.9414 5.125 67.8262L3.20312 72.1504V174.971V277.871H24.0234H44.8438V166.562V55.2539L32.6719 55.334C24.1035 55.334 19.459 55.7344 17.1367 56.5352Z" fill="#38799D"/>
<path d="M378.77 166.562V277.871H392.783H406.797V174.73V71.6699L404.875 67.5859C401.271 59.8184 393.504 55.2539 383.814 55.2539H378.77V166.562Z" fill="#38799D"/>
<path d="M191.387 57.3359C171.768 62.541 156.232 78.0762 151.348 97.375C149.426 104.902 149.266 116.674 151.027 124.121C152.709 131.328 157.754 141.338 162.238 146.383L166.002 150.707L168.404 146.143C173.209 137.174 183.939 128.766 193.389 126.443C198.514 125.242 199.234 124.521 196.352 123.48C189.385 121.078 184.18 112.75 184.18 104.021C184.18 81.4395 214.93 75.1133 224.299 95.6934C226.461 100.418 226.301 108.266 223.898 113.311C221.896 117.715 217.332 122.199 213.648 123.48C210.766 124.521 211.486 125.242 216.611 126.443C226.061 128.766 236.951 137.334 241.516 146.143C242.797 148.545 243.998 150.547 244.238 150.467C245.199 150.387 251.525 141.979 253.688 137.895C257.932 129.967 259.533 123.721 260.014 114.031C260.334 107.385 260.174 103.621 259.133 99.1367C256.57 87.6855 249.203 75.5137 240.314 68.3066C235.109 64.0625 225.1 59.0176 218.213 57.2559C212.127 55.7344 197.313 55.7344 191.387 57.3359Z" fill="#38799D"/>
<path d="M57.0955 1.52148C53.2518 3.2832 49.328 7.12695 46.9256 11.6113C44.9237 15.375 45.1639 -2.80273 45.4842 166.322L45.6444 277.871H69.908H94.1717L107.224 264.658C114.351 257.451 120.037 251.205 119.797 250.805C119.556 250.404 117.875 249.844 116.113 249.604C108.426 248.562 99.9373 241.916 96.2537 233.988C94.412 230.064 94.0916 228.383 94.0916 222.217C94.0916 215.971 94.412 214.369 96.3338 210.525C98.8963 205.16 105.062 199.154 110.347 196.752C113.951 195.07 115.152 194.99 145.342 194.75L176.572 194.51L189.465 181.137C197.713 172.648 202.117 167.523 201.476 167.203C200.996 166.883 199.555 166.562 198.273 166.562C194.83 166.562 186.822 164.32 181.457 161.838C160.156 152.068 146.463 127.484 149.666 104.822C151.508 91.209 156.232 81.7598 165.762 71.9902C172.488 65.1836 179.375 60.9395 188.824 57.8164C194.109 56.0547 196.431 55.8145 205 55.8145C216.451 55.8145 223.017 57.416 232.787 62.8613C239.273 66.5449 249.123 76.1543 252.887 82.6406C256.09 88.0859 259.293 96.9746 259.933 102.26C260.174 104.342 260.574 106.664 260.814 107.305C261.055 108.105 277.471 92.0898 310.783 58.457C356.588 12.1719 360.431 8.56836 361.392 10.0098C361.873 10.8906 362.754 12.6523 363.314 14.0137C363.795 15.2949 364.275 16.0156 364.275 15.4551C364.515 11.8516 357.869 3.84375 352.744 1.52148C349.701 0.0800781 343.295 0 205 0C65.1034 0 60.3787 0.0800781 57.0955 1.52148ZM80.078 28.0273V35.3145L73.1112 35.0742L66.0643 34.834L65.8241 27.7871L65.5838 20.8203H72.8709H80.078V28.0273ZM107.945 27.7871L107.705 34.834L100.738 35.0742L93.6912 35.3145V28.0273V20.8203H100.898H108.185L107.945 27.7871ZM135.332 28.0273V35.2344H128.525H121.719V28.0273V20.8203H128.525H135.332V28.0273Z" fill="#9BD3FC"/>
<path d="M364.676 36.0352C364.676 46.8457 364.836 51.25 364.916 45.8047C365.076 40.4395 365.076 31.6309 364.916 26.1856C364.836 20.8204 364.676 25.2246 364.676 36.0352Z" fill="#9BD3FC"/>
<path d="M53.4922 292.045C58.3769 292.205 66.5449 292.205 71.5098 292.045C76.3945 291.965 72.3906 291.805 62.4609 291.805C52.5312 291.805 48.5273 291.965 53.4922 292.045Z" fill="#9BD3FC"/>
<path d="M116.834 195.391C108.906 196.752 100.818 202.918 96.8145 210.605C95.1328 213.729 94.8926 215.33 94.8926 222.217C94.8926 229.104 95.1328 230.785 96.8145 234.229C99.457 239.514 104.822 244.719 110.348 247.281L114.912 249.443L184.02 249.684L253.047 249.844V242.477C253.047 233.027 254.088 229.424 257.771 225.74C263.137 220.375 270.584 219.975 276.35 224.779C280.594 228.383 281.875 232.227 281.875 241.756V250.084L288.521 249.684C299.732 249.123 308.541 243.598 313.105 234.229C314.787 230.785 315.107 229.104 315.107 222.217C315.107 215.09 314.867 213.809 312.945 210.205C310.062 204.76 304.857 199.955 299.092 197.232L294.287 194.99L207.402 194.91C159.596 194.83 118.836 195.07 116.834 195.391ZM128.926 222.617V229.824H121.719H114.512V222.617V215.41H121.719H128.926V222.617ZM156.953 222.617V229.904L149.586 229.664L142.139 229.424L141.898 222.377L141.658 215.41H149.346H156.953V222.617ZM184.18 222.617V229.824H176.973H169.766V222.617V215.41H176.973H184.18V222.617ZM212.207 222.617V229.824H205H197.793V222.617V215.41H205H212.207V222.617ZM240.234 222.617V229.824H233.027H225.82V222.617V215.41H233.027H240.234V222.617Z" fill="#DFDFDF"/>
<path d="M3.20312 304.857C3.20312 315.428 3.44336 318.07 4.72461 320.793C6.72656 325.197 10.8105 329.682 14.7344 331.764L18.0176 333.525L93.8516 333.766L169.605 333.926L169.285 335.768L168.885 337.529L169.686 335.688C170.486 333.926 170.646 333.926 187.783 333.926H205V332.004C205 327.199 212.527 321.113 218.453 321.113C221.496 321.113 223.258 321.914 234.709 328.801C242.717 333.605 243.598 333.926 248.162 333.926H253.047V313.105V292.285H128.125H3.20312V304.857Z" fill="#DFDFDF"/>
<path d="M308.301 293.006C308.301 294.367 309.742 294.687 310.223 293.486C310.463 292.766 310.223 292.285 309.502 292.285C308.861 292.285 308.301 292.605 308.301 293.006Z" fill="#DFDFDF"/>
<path d="M336.008 293.486C336.328 294.127 336.809 294.447 337.209 294.207C338.33 293.566 338.01 292.285 336.729 292.285C336.008 292.285 335.768 292.766 336.008 293.486Z" fill="#DFDFDF"/>
<path d="M378.769 312.705V333.045L371.803 333.365C367.158 333.525 369 333.686 376.928 333.766C391.181 333.926 395.666 332.805 400.551 327.76C405.916 322.234 406.797 319.191 406.797 304.857V292.285H392.783H378.769V312.705Z" fill="#DFDFDF"/>
<path d="M158.555 370.922C155.752 380.291 152.949 389.66 152.389 391.742L151.188 395.586H139.656H128.125V402.793V410H205H281.875V402.793V395.586H270.344H258.812L257.211 390.221C256.25 387.178 254.889 382.533 254.088 379.811L252.646 374.926L237.992 364.436L223.258 353.945H193.469H163.68L158.555 370.922Z" fill="#DFDFDF"/>
</svg>