<svg xmlns="http://www.w3.org/2000/svg" width="81" height="80" viewBox="0 0 81 80" fill="none">
<path d="M67.4402 10.0595L67.5273 12.558L67.4402 10.0595ZM55.5003 11.6251L54.7833 9.23016V9.23016L55.5003 11.6251ZM46.0798 16.0095L44.8275 13.8457L44.8275 13.8457L46.0798 16.0095ZM13.775 10.25L13.6216 12.7452L13.775 10.25ZM23.8337 11.6251L24.4715 9.20788L23.8337 11.6251ZM34.7745 16.2519L33.6059 18.4619L34.7745 16.2519ZM45.9256 66.8978L47.1016 69.1039H47.1016L45.9256 66.8978ZM57.167 62.1115L56.5291 59.6943L57.167 62.1115ZM67.1175 60.743L67.2735 63.2382L67.1175 60.743ZM35.075 66.8978L33.8991 69.1039H33.8991L35.075 66.8978ZM23.8337 62.1115L24.4715 59.6943L23.8337 62.1115ZM13.8832 60.743L13.7271 63.2382H13.7271L13.8832 60.743ZM9.66699 53.8123V16.6597H4.66699V53.8123H9.66699ZM76.3337 53.8123V16.4443H71.3337V53.8123H76.3337ZM67.3532 7.561C63.5588 7.69317 58.5989 8.08789 54.7833 9.23016L56.2173 14.0201C59.3812 13.0729 63.7978 12.6879 67.5273 12.558L67.3532 7.561ZM54.7833 9.23016C51.4665 10.2231 47.7358 12.1626 44.8275 13.8457L47.3321 18.1733C50.1669 16.5326 53.4832 14.8386 56.2173 14.0201L54.7833 9.23016ZM13.6216 12.7452C16.8416 12.9431 20.4884 13.328 23.1958 14.0424L24.4715 9.20788C21.2688 8.36275 17.2176 7.95682 13.9284 7.75466L13.6216 12.7452ZM23.1958 14.0424C26.4029 14.8887 30.3499 16.7402 33.6059 18.4619L35.9431 14.0418C32.6249 12.2872 28.2592 10.2074 24.4715 9.20788L23.1958 14.0424ZM47.1016 69.1039C50.405 67.3431 54.4963 65.4018 57.8049 64.5288L56.5291 59.6943C52.628 60.7237 48.1094 62.9007 44.7496 64.6917L47.1016 69.1039ZM57.8049 64.5288C60.4815 63.8225 64.0777 63.4381 67.2735 63.2382L66.9614 58.2479C63.6945 58.4523 59.6973 58.8583 56.5291 59.6943L57.8049 64.5288ZM36.251 64.6917C32.8912 62.9007 28.3727 60.7237 24.4715 59.6943L23.1958 64.5288C26.5043 65.4018 30.5957 67.3431 33.8991 69.1039L36.251 64.6917ZM24.4715 59.6943C21.3034 58.8583 17.3062 58.4523 14.0392 58.2479L13.7271 63.2382C16.923 63.4381 20.5192 63.8225 23.1958 64.5288L24.4715 59.6943ZM71.3337 53.8123C71.3337 56.0981 69.4393 58.0929 66.9614 58.2479L67.2735 63.2382C72.1877 62.9308 76.3337 58.933 76.3337 53.8123H71.3337ZM76.3337 16.4443C76.3337 11.5666 72.4493 7.38348 67.3532 7.561L67.5273 12.558C69.5765 12.4866 71.3337 14.1723 71.3337 16.4443H76.3337ZM4.66699 53.8123C4.66699 58.933 8.81294 62.9308 13.7271 63.2382L14.0392 58.2479C11.5613 58.0929 9.66699 56.0981 9.66699 53.8123H4.66699ZM44.7496 64.6917C42.1087 66.0994 38.892 66.0994 36.251 64.6917L33.8991 69.1039C38.0101 71.2953 42.9906 71.2953 47.1016 69.1039L44.7496 64.6917ZM44.8275 13.8457C42.1006 15.424 38.7058 15.5027 35.9431 14.0418L33.6059 18.4619C37.9133 20.7396 43.137 20.6011 47.3321 18.1733L44.8275 13.8457ZM9.66699 16.6597C9.66699 14.3357 11.5084 12.6154 13.6216 12.7452L13.9284 7.75466C8.73422 7.43543 4.66699 11.6625 4.66699 16.6597H9.66699Z" fill="white"/>
<path d="M40.5 19.5133V69.9997" stroke="white" stroke-width="5"/>
<path d="M17.167 30L30.5003 33.3333" stroke="white" stroke-width="5" stroke-linecap="round"/>
<path d="M63.833 30L50.4997 33.3333" stroke="white" stroke-width="5" stroke-linecap="round"/>
<path d="M17.167 43.3334L30.5003 46.6667" stroke="white" stroke-width="5" stroke-linecap="round"/>
<path d="M63.833 43.3334L50.4997 46.6667" stroke="white" stroke-width="5" stroke-linecap="round"/>
</svg>