<svg xmlns="http://www.w3.org/2000/svg" width="81" height="80" viewBox="0 0 81 80" fill="none">
<path d="M73.8337 33.3334C73.8953 35.7569 73.8337 36.8475 73.8337 40C73.8337 52.5708 73.8337 58.8562 69.9284 62.7615C66.0232 66.6667 59.7378 66.6667 47.167 66.6667H33.8337C21.2629 66.6667 14.9775 66.6667 11.0722 62.7615C7.16699 58.8562 7.16699 52.5708 7.16699 40C7.16699 27.4293 7.16699 21.1439 11.0722 17.2386C14.9775 13.3334 21.2629 13.3334 33.8337 13.3334H43.8337" stroke="white" stroke-width="5" stroke-linecap="round"/>
<path d="M20.5 26.6666L27.6963 32.6636C33.8184 37.7653 36.8795 40.3162 40.5 40.3162C44.1205 40.3162 47.1816 37.7653 53.3037 32.6636" stroke="white" stroke-width="5" stroke-linecap="round"/>
<circle cx="63.833" cy="16.6666" r="10" stroke="white" stroke-width="5"/>
</svg>