<svg xmlns="http://www.w3.org/2000/svg" width="81" height="80" viewBox="0 0 81 80" fill="none">
<path d="M33.8337 73.3333C48.5613 73.3333 60.5003 61.3943 60.5003 46.6667C60.5003 31.9391 48.5613 20 33.8337 20C19.1061 20 7.16699 31.9391 7.16699 46.6667C7.16699 50.785 8.10058 54.6853 9.76766 58.1675C10.3406 59.3643 10.5418 60.7202 10.1988 62.002L9.10536 66.0888C8.24351 69.3099 11.1904 72.2568 14.4115 71.395L18.4983 70.3015C19.7801 69.9585 21.136 70.1597 22.3328 70.7327C25.815 72.3997 29.7153 73.3333 33.8337 73.3333Z" stroke="white" stroke-width="5"/>
<path d="M60.5003 48.3394C60.7219 48.247 60.9416 48.151 61.1594 48.0516C62.3664 47.5002 63.7206 47.2941 65.0024 47.637L66.5892 48.0616C69.8103 48.9234 72.7571 45.9766 71.8953 42.7555L71.4707 41.1687C71.1278 39.8868 71.3339 38.5327 71.8853 37.3257C73.1364 34.5866 73.8337 31.5414 73.8337 28.3333C73.8337 16.3671 64.1332 6.66663 52.167 6.66663C43.1595 6.66663 35.4357 12.1632 32.167 19.9853" stroke="white" stroke-width="5"/>
<path d="M22.2273 46.6666H22.2573M33.863 46.6666H33.893M45.4997 46.6666H45.5297" stroke="white" stroke-width="5" stroke-linecap="round" stroke-linejoin="round"/>
</svg>