<svg xmlns="http://www.w3.org/2000/svg" width="37" height="38" viewBox="0 0 37 38" fill="none">
<g clip-path="url(#clip0_607_912)">
<path d="M15.6925 24.6698C20.2807 24.6698 24.0001 20.9503 24.0001 16.3621C24.0001 11.7739 20.2807 8.05444 15.6925 8.05444C11.1042 8.05444 7.38477 11.7739 7.38477 16.3621C7.38477 20.9503 11.1042 24.6698 15.6925 24.6698Z" fill="url(#paint0_linear_607_912)"/>
<path d="M14.7698 4.92469C14.2602 4.92469 13.8467 4.51115 13.8467 4.00161V1.593C13.8467 1.08346 14.2602 0.669922 14.7698 0.669922C15.2793 0.669922 15.6928 1.08346 15.6928 1.593V4.00161C15.6928 4.51115 15.2793 4.92469 14.7698 4.92469Z" fill="url(#paint1_linear_607_912)"/>
<path d="M4.97843 26.153C4.74213 26.153 4.50582 26.0631 4.32613 25.8822C3.96551 25.5216 3.96551 24.937 4.32613 24.5764L6.02951 22.873C6.39012 22.5124 6.97474 22.5124 7.33535 22.873C7.69597 23.2336 7.69597 23.8182 7.33535 24.1788L5.63197 25.8822C5.45105 26.0631 5.21474 26.153 4.97843 26.153Z" fill="url(#paint2_linear_607_912)"/>
<path d="M3.33169 16.3622H0.923077C0.413538 16.3622 0 15.9487 0 15.4391C0 14.9296 0.413538 14.5161 0.923077 14.5161H3.33169C3.84123 14.5161 4.25477 14.9296 4.25477 15.4391C4.25477 15.9487 3.84123 16.3622 3.33169 16.3622Z" fill="url(#paint3_linear_607_912)"/>
<path d="M6.68182 8.27483C6.44551 8.27483 6.2092 8.18498 6.02951 8.00406L4.32613 6.30067C3.96551 5.94006 3.96551 5.35544 4.32613 4.99483C4.68674 4.63421 5.27136 4.63421 5.63197 4.99483L7.33535 6.69821C7.69597 7.05883 7.69597 7.64344 7.33535 8.00406C7.1532 8.18375 6.91812 8.27483 6.68182 8.27483Z" fill="url(#paint4_linear_607_912)"/>
<path d="M23.0783 8.27483C23.3146 8.27483 23.5509 8.18498 23.7306 8.00406L25.4339 6.30067C25.7946 5.94006 25.7946 5.35544 25.4339 4.99483C25.0733 4.63421 24.4887 4.63421 24.1281 4.99483L22.4247 6.69821C22.0641 7.05883 22.0641 7.64344 22.4247 8.00406C22.6069 8.18375 22.8419 8.27483 23.0783 8.27483Z" fill="url(#paint5_linear_607_912)"/>
<path d="M10.7652 25.5328C11.0294 25.4665 11.2937 25.5328 11.5249 25.6986C12.3837 26.4278 13.3746 27.0244 14.4646 27.4222C15.4885 27.8199 16.6116 28.0188 17.8007 28.0188C20.4761 28.0188 22.9204 26.925 24.671 25.1682C26.4216 23.4115 27.5116 20.9587 27.5116 18.2739C27.5116 17.1469 27.3134 16.0531 26.9831 15.0587C26.6198 13.998 26.0913 13.0368 25.3976 12.2081C25.1004 11.8435 25.1664 11.3132 25.5298 11.0149C25.761 10.8491 26.0252 10.7829 26.2895 10.8491C29.0971 11.6115 31.5413 13.3019 33.2919 15.5559C34.9765 17.7767 36.0004 20.5278 36.0004 23.5441C36.0004 27.157 34.5471 30.4384 32.1689 32.825C29.7907 35.2115 26.5207 36.6699 22.9204 36.6699C19.8816 36.6699 17.074 35.6092 14.8279 33.8525C12.5488 32.0626 10.8973 29.5104 10.2037 26.5935C10.0385 26.0963 10.3028 25.6323 10.7652 25.5328Z" fill="url(#paint6_linear_607_912)" stroke="white" stroke-width="1.5"/>
</g>
<defs>
<linearGradient id="paint0_linear_607_912" x1="24.7859" y1="29.4739" x2="19.1589" y2="16.4241" gradientUnits="userSpaceOnUse">
<stop offset="0.075419" stop-color="#FBB033"/>
<stop offset="0.6141" stop-color="#FDC73D"/>
<stop offset="0.959" stop-color="#FFE248"/>
</linearGradient>
<linearGradient id="paint1_linear_607_912" x1="15.7802" y1="6.15489" x2="13.7987" y2="4.16098" gradientUnits="userSpaceOnUse">
<stop offset="0.075419" stop-color="#FBB033"/>
<stop offset="0.6141" stop-color="#FDC73D"/>
<stop offset="0.959" stop-color="#FFE248"/>
</linearGradient>
<linearGradient id="paint2_linear_607_912" x1="7.77371" y1="27.1795" x2="6.57122" y2="24.3911" gradientUnits="userSpaceOnUse">
<stop offset="0.075419" stop-color="#FBB033"/>
<stop offset="0.6141" stop-color="#FDC73D"/>
<stop offset="0.959" stop-color="#FFE248"/>
</linearGradient>
<linearGradient id="paint3_linear_607_912" x1="4.45598" y1="16.896" x2="4.14514" y2="15.2346" gradientUnits="userSpaceOnUse">
<stop offset="0.075419" stop-color="#FBB033"/>
<stop offset="0.6141" stop-color="#FDC73D"/>
<stop offset="0.959" stop-color="#FFE248"/>
</linearGradient>
<linearGradient id="paint4_linear_607_912" x1="7.77371" y1="9.30139" x2="6.57122" y2="6.51291" gradientUnits="userSpaceOnUse">
<stop offset="0.075419" stop-color="#FBB033"/>
<stop offset="0.6141" stop-color="#FDC73D"/>
<stop offset="0.959" stop-color="#FFE248"/>
</linearGradient>
<linearGradient id="paint5_linear_607_912" x1="21.9864" y1="9.30139" x2="23.1888" y2="6.51291" gradientUnits="userSpaceOnUse">
<stop offset="0.075419" stop-color="#FBB033"/>
<stop offset="0.6141" stop-color="#FDC73D"/>
<stop offset="0.959" stop-color="#FFE248"/>
</linearGradient>
<linearGradient id="paint6_linear_607_912" x1="8.93198" y1="44.1429" x2="17.6851" y2="23.8432" gradientUnits="userSpaceOnUse">
<stop offset="0.075419" stop-color="#FBB033"/>
<stop offset="0.6141" stop-color="#FDC73D"/>
<stop offset="0.959" stop-color="#FFE248"/>
</linearGradient>
<clipPath id="clip0_607_912">
<rect width="37" height="37" fill="white" transform="translate(0 0.669922)"/>
</clipPath>
</defs>
</svg>