<svg xmlns="http://www.w3.org/2000/svg" width="37" height="37" viewBox="0 0 37 37" fill="none">
<g clip-path="url(#clip0_607_1436)">
<g clip-path="url(#clip1_607_1436)">
<path d="M36.3799 18.8488C36.3799 28.7648 28.3007 36.8401 18.3799 36.8401C8.45903 36.8401 0.379883 28.7648 0.379883 18.8488C0.379883 8.91534 8.45903 0.840088 18.3799 0.840088C28.3007 0.840088 36.3799 8.91534 36.3799 18.8488Z" fill="#FFCD00"/>
<path d="M25.5795 18.8488C25.5795 19.3038 25.4363 19.7604 25.1499 20.1261C25.0962 20.1979 24.8457 20.4936 24.6488 20.686L24.5414 20.791C23.038 22.385 19.2974 24.7821 17.4002 25.5502C17.4002 25.5677 16.2727 26.0243 15.7357 26.0401H15.6641C14.8408 26.0401 14.0712 25.5869 13.6775 24.852C13.4627 24.4479 13.2658 23.2756 13.2479 23.2598C13.0869 22.2083 12.9795 20.5985 12.9795 18.8313C12.9795 16.9784 13.0869 15.297 13.2837 14.2646C13.2837 14.2471 13.4806 13.3023 13.6059 12.9874C13.8028 12.5342 14.1607 12.1475 14.6082 11.9025C14.9661 11.7293 15.342 11.6401 15.7357 11.6401C16.1474 11.6593 16.917 11.92 17.2212 12.0425C19.2258 12.8124 23.0559 15.3319 24.5235 16.8717C24.7741 17.1166 25.0425 17.4158 25.1141 17.4841C25.4184 17.869 25.5795 18.3414 25.5795 18.8488Z" fill="#121212"/>
</g>
</g>
<defs>
<clipPath id="clip0_607_1436">
<rect width="36" height="36" fill="white" transform="translate(0.379883 0.840088)"/>
</clipPath>
<clipPath id="clip1_607_1436">
<rect width="36" height="36" fill="white" transform="translate(0.379883 0.840088)"/>
</clipPath>
</defs>
</svg>