<svg xmlns="http://www.w3.org/2000/svg" width="36" height="37" viewBox="0 0 36 37" fill="none">
<path d="M17.9991 34.6679C26.8346 34.6679 33.9972 27.5053 33.9972 18.6698C33.9972 9.83424 26.8346 2.67163 17.9991 2.67163C9.16359 2.67163 2.00098 9.83424 2.00098 18.6698C2.00098 27.5053 9.16359 34.6679 17.9991 34.6679Z" fill="url(#paint0_linear_607_937)"/>
<path d="M28.2667 6.40552C30.5944 9.1852 32.0003 12.7617 32.0003 16.6703C32.0003 25.5053 24.8371 32.6685 16.0021 32.6685C12.0936 32.6685 8.51698 31.2636 5.7373 28.9359C8.67196 32.4385 13.0745 34.6682 18.0019 34.6682C26.8369 34.6682 34 27.5061 34 18.6701C34 13.7436 31.7703 9.34018 28.2667 6.40552Z" fill="url(#paint1_linear_607_937)"/>
<path d="M14.0004 17.6699C13.4475 17.6699 13.0005 17.222 13.0005 16.67C13.0005 16.1191 12.5526 15.6701 12.0006 15.6701C11.4487 15.6701 11.0008 16.1191 11.0008 16.67C11.0008 17.222 10.5538 17.6699 10.0009 17.6699C9.44793 17.6699 9.00098 17.222 9.00098 16.67C9.00098 15.0162 10.3468 13.6704 12.0006 13.6704C13.6544 13.6704 15.0003 15.0162 15.0003 16.67C15.0003 17.223 14.5533 17.6699 14.0004 17.6699Z" fill="#FF9900"/>
<path d="M25.9984 17.6699C25.4455 17.6699 24.9985 17.222 24.9985 16.67C24.9985 16.1191 24.5506 15.6701 23.9987 15.6701C23.4467 15.6701 22.9988 16.1191 22.9988 16.67C22.9988 17.222 22.5518 17.6699 21.9989 17.6699C21.446 17.6699 20.999 17.222 20.999 16.67C20.999 15.0162 22.3449 13.6704 23.9987 13.6704C25.6525 13.6704 26.9983 15.0162 26.9983 16.67C26.9983 17.223 26.5514 17.6699 25.9984 17.6699Z" fill="#FF9900"/>
<path d="M23.4547 21.6694H12.5459C12.245 21.6694 12.001 21.8943 12.001 22.1693C12.001 25.2019 14.6917 27.6686 18.0003 27.6686C21.3089 27.6686 23.9996 25.2019 23.9996 22.1693C23.9996 21.8943 23.7556 21.6694 23.4547 21.6694Z" fill="#FF9900"/>
<defs>
<linearGradient id="paint0_linear_607_937" x1="35.5104" y1="43.9192" x2="24.6744" y2="18.7891" gradientUnits="userSpaceOnUse">
<stop offset="0.075419" stop-color="#FBB033"/>
<stop offset="0.6141" stop-color="#FDC73D"/>
<stop offset="0.959" stop-color="#FFE248"/>
</linearGradient>
<linearGradient id="paint1_linear_607_937" x1="8.31772" y1="31.6558" x2="43.7863" y2="19.0903" gradientUnits="userSpaceOnUse">
<stop stop-color="#E8990C"/>
<stop offset="0.3903" stop-color="#F4B421"/>
<stop offset="0.7418" stop-color="#FCC62E"/>
<stop offset="1" stop-color="#FFCC33"/>
</linearGradient>
</defs>
</svg>