<svg xmlns="http://www.w3.org/2000/svg" width="37" height="38" viewBox="0 0 37 38" fill="none">
<path fill-rule="evenodd" clip-rule="evenodd" d="M4.625 23.6949C4.625 17.7905 9.6757 13.1258 15.6087 13.6487C20.7749 14.1079 24.7852 18.4519 24.7852 23.6949C24.7852 29.2651 20.2718 33.7802 14.705 33.7802H4.625L7.1665 30.3891C5.58543 28.6082 4.625 26.2641 4.625 23.6949ZM17.2236 21.7217C16.7465 21.0429 16.0861 20.7035 15.2421 20.7035C14.8293 20.7035 14.4486 20.7952 14.1 20.9787C13.7606 21.153 13.4716 21.4052 13.2331 21.7355V17.8L11.4717 17.9927V28.1891H13.0267L13.1367 27.446C13.3753 27.7488 13.6551 27.9827 13.9761 28.1478C14.3064 28.3129 14.6687 28.3955 15.0632 28.3955C15.6503 28.3955 16.1594 28.235 16.5906 27.9139C17.0218 27.5836 17.352 27.1295 17.5813 26.5516C17.8199 25.9645 17.9391 25.2948 17.9391 24.5426C17.9391 23.3317 17.7006 22.3914 17.2236 21.7217ZM15.6962 26.4691C15.4301 26.8727 15.0586 27.0745 14.5816 27.0745C14.3064 27.0745 14.0495 27.0011 13.811 26.8543C13.5817 26.7076 13.389 26.5012 13.2331 26.2351V23.0152C13.6367 22.3547 14.1183 22.0245 14.6779 22.0245C15.1274 22.0245 15.476 22.2171 15.7237 22.6024C15.9714 22.9785 16.0952 23.6252 16.0952 24.5426C16.0952 25.4141 15.9622 26.0562 15.6962 26.4691Z" fill="url(#paint0_linear_607_924)"/>
<path fill-rule="evenodd" clip-rule="evenodd" d="M24.13 4.30396C28.685 4.30396 32.3774 7.99841 32.3774 12.5558C32.3774 14.6577 31.5918 16.5762 30.2979 18.0335L32.3774 20.8076H26.1571C25.7728 19.2794 25.094 17.8729 24.1854 16.6503C24.9146 16.6424 25.5461 16.4716 26.0799 16.1379C26.6268 15.7961 27.0467 15.3176 27.3397 14.7024C27.6326 14.0775 27.7791 13.3597 27.7791 12.5492C27.7791 11.2797 27.4568 10.2836 26.8123 9.56102C26.1776 8.82862 25.289 8.46243 24.1464 8.46243C23.3945 8.46243 22.7402 8.63333 22.1836 8.97511C21.6368 9.31689 21.2169 9.79538 20.9239 10.4106C20.6309 11.0258 20.4845 11.7387 20.4845 12.5492C20.4845 12.8561 20.503 13.1473 20.5401 13.4227C19.1466 12.6296 17.5766 12.1126 15.9053 11.9436C16.2184 7.6722 19.7816 4.30396 24.13 4.30396ZM20.5401 13.4227C20.5403 13.4239 20.5404 13.4251 20.5406 13.4263C21.9648 14.2381 23.2045 15.3383 24.1795 16.6504C24.1815 16.6504 24.1834 16.6503 24.1854 16.6503C23.2089 15.3364 21.9669 14.2348 20.5401 13.4227ZM24.1464 9.85397C23.1308 9.85397 22.5596 10.5375 22.4326 11.9047H25.8309C25.7138 10.5375 25.1522 9.85397 24.1464 9.85397ZM24.1318 15.2444C25.1767 15.2444 25.7479 14.5218 25.8456 13.0765H22.418C22.4668 13.8187 22.6328 14.3655 22.916 14.7171C23.209 15.0686 23.6142 15.2444 24.1318 15.2444Z" fill="url(#paint1_linear_607_924)"/>
<defs>
<linearGradient id="paint0_linear_607_924" x1="25.7386" y1="39.6125" x2="18.9045" y2="23.7725" gradientUnits="userSpaceOnUse">
<stop offset="0.075419" stop-color="#FBB033"/>
<stop offset="0.6141" stop-color="#FDC73D"/>
<stop offset="0.959" stop-color="#FFE248"/>
</linearGradient>
<linearGradient id="paint1_linear_607_924" x1="17.4092" y1="19.0485" x2="38.0898" y2="11.736" gradientUnits="userSpaceOnUse">
<stop stop-color="#E8990C"/>
<stop offset="0.3903" stop-color="#F4B421"/>
<stop offset="0.7418" stop-color="#FCC62E"/>
<stop offset="1" stop-color="#FFCC33"/>
</linearGradient>
</defs>
</svg>
