<svg xmlns="http://www.w3.org/2000/svg" width="36" height="37" viewBox="0 0 36 37" fill="none">
<path d="M35.19 32.7H0.813663C0.366291 32.7 0.00370026 32.3374 0.00370026 31.89V31.1609C0.00317383 31.1488 0 31.1375 0 31.1252C0 30.993 0.0317268 30.8682 0.0879593 30.758L3.60314 21.9092V5.44961C3.60314 5.00224 3.96572 4.63965 4.4131 4.63965H31.5904C32.0378 4.63965 32.4004 5.00224 32.4004 5.44961V21.9092L35.9429 30.8262C35.9588 30.866 35.9699 30.9068 35.9792 30.9478C35.9815 30.9582 35.9833 30.9686 35.9852 30.9792C35.994 31.0264 35.9995 31.0742 35.9996 31.122L36 31.1252V31.89C36 32.3374 35.6374 32.7 35.19 32.7ZM21.4854 30.086L20.7443 27.7945H15.2594L14.5183 30.086H21.4854ZM30.0192 6.70606H5.98437V20.8077H30.0192V6.70606Z" fill="url(#paint0_linear_607_931)"/>
<defs>
<linearGradient id="paint0_linear_607_931" x1="-1.70249" y1="40.8132" x2="6.19028" y2="17.3295" gradientUnits="userSpaceOnUse">
<stop offset="0.075419" stop-color="#FBB033"/>
<stop offset="0.6141" stop-color="#FDC73D"/>
<stop offset="0.959" stop-color="#FFE248"/>
</linearGradient>
</defs>
</svg>